<?xml version="1.0" encoding="utf-8"?>
<svg viewBox="13.316 53.562 24.961 398.663" xmlns="http://www.w3.org/2000/svg" xmlns:bx="https://boxy-svg.com">
  <path style="fill: rgb(216, 216, 216); stroke: rgb(0, 0, 0);" d="M 31.144 451.461 C 31.144 451.461 33.788 393.044 30.608 386.823 C 29.904 385.445 28.588 386.084 28.053 384.945 C 26.928 382.548 27.215 374.167 28.883 370.937 C 30.116 368.549 33.337 368.274 34.864 366.134 C 36.614 363.681 38.295 359.838 38.277 356.652 C 38.259 353.4 36.375 349.303 34.614 346.816 C 33.17 344.776 30.063 344.018 29.191 342.292 C 28.485 340.894 29.04 339.588 28.914 337.667 C 28.706 334.488 28.234 331.929 28.012 325.012 C 27.01 293.755 31.103 96.24 29.842 65.929 C 29.573 59.462 30.342 55.613 28.779 54.182 C 27.882 53.361 25.754 53.353 24.894 54.173 C 23.395 55.602 24.523 59.48 24.358 65.958 C 23.584 96.313 23.016 293.7 22.93 324.983 C 22.911 331.904 23.258 334.434 22.93 337.661 C 22.724 339.687 22.67 341.292 21.925 342.557 C 21.276 343.659 19.984 344.1 19.045 345.029 C 18.015 346.048 16.91 347.166 16.033 348.465 C 15.089 349.864 14.057 351.467 13.645 353.195 C 13.204 355.045 13.21 357.159 13.645 359.266 C 14.162 361.768 15.473 365.412 17.038 367.123 C 18.219 368.414 20.19 368.913 21.323 369.444 C 22.035 369.778 22.714 369.672 23.109 370.158 C 23.609 370.773 23.546 371.938 23.644 373.194 C 23.802 375.209 23.605 379.288 23.501 381.123 C 23.446 382.102 23.521 382.59 23.287 383.371 C 22.999 384.335 22.348 385.515 21.68 386.407 C 21.031 387.274 19.964 387.179 19.359 388.668 C 16.74 395.113 20.094 442.955 20.966 449.338 C 21.132 450.556 20.937 450.981 21.502 451.48 C 22.428 452.297 25.655 452.258 27.394 452.195 C 28.789 452.144 31.144 451.461 31.144 451.461 C 31.144 451.461 31.144 451.461 31.144 451.461 C 31.144 451.461 31.144 451.461 31.144 451.461" bx:d="M 31.144 451.461 R 30.608 386.823 R 28.053 384.945 R 28.883 370.937 R 34.864 366.134 R 38.277 356.652 R 34.614 346.816 R 29.191 342.292 R 28.914 337.667 R 28.012 325.012 R 29.842 65.929 R 28.779 54.182 R 24.894 54.173 R 24.358 65.958 R 22.93 324.983 R 22.93 337.661 R 21.925 342.557 R 19.045 345.029 R 16.033 348.465 R 13.645 353.195 R 13.645 359.266 R 17.038 367.123 R 21.323 369.444 R 23.109 370.158 R 23.644 373.194 R 23.501 381.123 R 23.287 383.371 R 21.68 386.407 R 19.359 388.668 R 20.966 449.338 R 21.502 451.48 R 27.394 452.195 R 31.144 451.461 R 31.144 451.461 Z 1@4c127bbc"/>
</svg>